<svg xmlns="http://www.w3.org/2000/svg" width="512" height="512" enable-background="new 0 0 512 512" viewBox="0 0 512 512" id="food"><linearGradient id="a" x1="76.022" x2="148.458" y1="183.755" y2="183.755" gradientUnits="userSpaceOnUse"><stop offset=".27" stop-color="#4a82c3"></stop><stop offset=".34" stop-color="#557cbe"></stop><stop offset=".652" stop-color="#7462ab"></stop><stop offset=".805" stop-color="#7d56a3"></stop></linearGradient><path fill="url(#a)" d="M137.188,219.97c3.82,0,7.59-0.35,11.27-1.03l-9.03-9.02l-53.37-53.38l-9-9
			c-3.56,19.16,2.06,39.71,16.85,54.5C105.468,213.6,120.838,219.97,137.188,219.97z"></path><linearGradient id="b" x1="97.588" x2="194.218" y1="150.045" y2="150.045" gradientUnits="userSpaceOnUse"><stop offset=".27" stop-color="#4a82c3"></stop><stop offset=".34" stop-color="#557cbe"></stop><stop offset=".652" stop-color="#7462ab"></stop><stop offset=".805" stop-color="#7d56a3"></stop></linearGradient><path fill="url(#b)" d="M176.758,191.27l7.1,7.09c4.45-5.22,7.93-11.07,10.36-17.33l-7.88-7.87l-63.54-63.55l-7.88-7.88
			c-6.26,2.43-12.11,5.92-17.33,10.37l7.1,7.09L176.758,191.27z"></path><linearGradient id="c" x1="219.722" x2="287.909" y1="256" y2="256" gradientUnits="userSpaceOnUse"><stop offset=".27" stop-color="#4a82c3"></stop><stop offset=".34" stop-color="#557cbe"></stop><stop offset=".652" stop-color="#7462ab"></stop><stop offset=".805" stop-color="#7d56a3"></stop></linearGradient><path fill="url(#c)" d="M258.815,107.677V94.791c0-2.762-2.239-5-5-5s-5,2.238-5,5v12.886
			c-16.437,2.427-29.093,16.623-29.093,33.723c0,9.398,3.822,17.921,9.994,24.094h-4.994c-2.761,0-5,2.238-5,5v58.188
			c0,2.762,2.239,5,5,5h4.994c-6.172,6.173-9.994,14.695-9.994,24.093c0,9.398,3.822,17.921,9.994,24.094h-4.994
			c-2.761,0-5,2.238-5,5v58.188c0,2.762,2.239,5,5,5h24.093v18.529c0,2.762,2.239,5,5,5c10.649,0,19.313,8.663,19.313,19.312
			c0,10.649-8.664,19.313-19.313,19.313c-10.648,0-19.312-8.663-19.312-19.313c0-2.762-2.239-5-5-5s-5,2.238-5,5
			c0,16.163,13.149,29.313,29.312,29.313c16.163,0,29.313-13.149,29.313-29.313c0-14.457-10.524-26.495-24.313-28.876v-13.965
			h24.094c2.761,0,5-2.238,5-5v-58.188c0-2.762-2.239-5-5-5h-4.994c6.172-6.173,9.994-14.695,9.994-24.094
			c0-9.398-3.822-17.92-9.994-24.093h4.994c2.761,0,5-2.238,5-5v-58.188c0-2.762-2.239-5-5-5h-4.994
			c6.172-6.173,9.994-14.695,9.994-24.094C287.909,124.3,275.252,110.104,258.815,107.677z M277.909,340.056h-48.187v-48.188h48.187
			V340.056z M253.815,281.868c-13.285,0-24.093-10.809-24.093-24.094s10.808-24.093,24.093-24.093s24.094,10.808,24.094,24.093
			S267.1,281.868,253.815,281.868z M277.909,223.682h-48.187v-48.188h48.187V223.682z M253.815,165.494
			c-13.285,0-24.093-10.809-24.093-24.094s10.808-24.093,24.093-24.093s24.094,10.808,24.094,24.093S267.1,165.494,253.815,165.494z
			"></path><linearGradient id="d" x1="302.05" x2="435.978" y1="253.705" y2="253.705" gradientUnits="userSpaceOnUse"><stop offset=".27" stop-color="#4a82c3"></stop><stop offset=".34" stop-color="#557cbe"></stop><stop offset=".652" stop-color="#7462ab"></stop><stop offset=".805" stop-color="#7d56a3"></stop></linearGradient><path fill="url(#d)" d="M392.698,139.21c-1.14-1.36-2.33-2.68-3.35-3.82l-0.1-0.1c-0.03-0.04-0.06-0.07-0.09-0.1
			c-0.05-0.04-0.09-0.09-0.13-0.13c-5.8-5.46-13.4-8.48-21.39-8.48c-4.81,0-9.38,1.1-13.45,3.05l-8.4-31.32
			c-0.46-1.73-1.81-3.08-3.53-3.54c-1.73-0.46-3.57,0.03-4.83,1.29l-28.5,28.5c-1.26,1.26-1.75,3.1-1.29,4.83
			c0.46,1.72,1.81,3.07,3.53,3.53l30.16,8.08c-3.13,4.87-4.95,10.64-4.95,16.84c0,6.73,2.12,13.15,6.12,18.56
			c0.1,0.14,0.21,0.27,0.33,0.4c1.02,1.12,1.99,2.21,2.88,3.27c18.05,21.17,27.99,48.18,27.99,76.04c0,27.92-9.97,54.96-28.06,76.14
			c-0.95,1.11-1.94,2.22-2.94,3.32c-0.13,0.13-0.24,0.27-0.35,0.41c-3.99,5.42-6.1,11.85-6.1,18.59c0,4.77,1.07,9.29,2.99,13.34
			h-32.19c-1.78,0-3.43,0.96-4.33,2.5c-0.89,1.55-0.89,3.46,0,5l20.15,34.9c0.9,1.55,2.55,2.5,4.33,2.5c1.79,0,3.44-0.95,4.33-2.5
			l17.59-30.45c5.17,3.78,11.55,6.03,18.45,6.03c7.4,0,14.59-2.64,20.23-7.42c0.16-0.13,0.3-0.27,0.44-0.42
			c1.79-1.94,3.53-3.9,5.16-5.83c27.46-32.37,42.58-73.6,42.58-116.11C435.978,213.21,420.598,171.68,392.698,139.21z
			 M322.128,125.5l16.24-16.24l5.95,22.19L322.128,125.5z M327.198,397.81l-11.48-19.9h22.97L327.198,397.81z"></path><linearGradient id="e" x1="125.918" x2="198.388" y1="133.795" y2="133.795" gradientUnits="userSpaceOnUse"><stop offset=".27" stop-color="#4a82c3"></stop><stop offset=".34" stop-color="#557cbe"></stop><stop offset=".652" stop-color="#7462ab"></stop><stop offset=".805" stop-color="#7d56a3"></stop></linearGradient><path fill="url(#e)" d="M137.188,97.56c-3.82,0-7.59,0.35-11.27,1.03l9.02,9.02l53.4,53.4l9.02,9.02
			c0.68-3.68,1.03-7.44,1.03-11.26c0-16.35-6.36-31.72-17.92-43.28S153.538,97.56,137.188,97.56z"></path><linearGradient id="f" x1="80.178" x2="176.778" y1="167.485" y2="167.485" gradientUnits="userSpaceOnUse"><stop offset=".27" stop-color="#4a82c3"></stop><stop offset=".34" stop-color="#557cbe"></stop><stop offset=".652" stop-color="#7462ab"></stop><stop offset=".805" stop-color="#7d56a3"></stop></linearGradient><path fill="url(#f)" d="M151.578,207.92l7.88,7.88c6.26-2.43,12.11-5.92,17.32-10.37l-86.26-86.26
			c-4.49,5.29-7.94,11.16-10.34,17.35l7.87,7.87L151.578,207.92z"></path><linearGradient id="g" x1="125.918" x2="198.388" y1="303.875" y2="303.875" gradientUnits="userSpaceOnUse"><stop offset=".27" stop-color="#4a82c3"></stop><stop offset=".34" stop-color="#557cbe"></stop><stop offset=".652" stop-color="#7462ab"></stop><stop offset=".805" stop-color="#7d56a3"></stop></linearGradient><path fill="url(#g)" d="M137.188,267.64c-3.82,0-7.59,0.35-11.27,1.03l9.02,9.02l53.4,53.4l9.02,9.02
			c0.68-3.68,1.03-7.45,1.03-11.27c0-16.35-6.36-31.72-17.92-43.28C168.908,274,153.538,267.64,137.188,267.64z"></path><linearGradient id="h" x1="97.588" x2="194.218" y1="320.12" y2="320.12" gradientUnits="userSpaceOnUse"><stop offset=".27" stop-color="#4a82c3"></stop><stop offset=".34" stop-color="#557cbe"></stop><stop offset=".652" stop-color="#7462ab"></stop><stop offset=".805" stop-color="#7d56a3"></stop></linearGradient><path fill="url(#h)" d="M122.798,279.69l-7.89-7.89c-6.26,2.44-12.11,5.93-17.32,10.37l86.27,86.27
			c4.45-5.22,7.93-11.07,10.36-17.33l-7.88-7.88L122.798,279.69z"></path><linearGradient id="i" x1="80.178" x2="176.778" y1="337.56" y2="337.56" gradientUnits="userSpaceOnUse"><stop offset=".27" stop-color="#4a82c3"></stop><stop offset=".34" stop-color="#557cbe"></stop><stop offset=".652" stop-color="#7462ab"></stop><stop offset=".805" stop-color="#7d56a3"></stop></linearGradient><path fill="url(#i)" d="M97.618,296.34l-7.1-7.1c-4.49,5.29-7.94,11.17-10.34,17.36l79.28,79.28
			c6.26-2.43,12.11-5.92,17.32-10.37l-7.1-7.1L97.618,296.34z"></path><linearGradient id="j" x1="76.022" x2="148.458" y1="353.835" y2="353.835" gradientUnits="userSpaceOnUse"><stop offset=".27" stop-color="#4a82c3"></stop><stop offset=".34" stop-color="#557cbe"></stop><stop offset=".652" stop-color="#7462ab"></stop><stop offset=".805" stop-color="#7d56a3"></stop></linearGradient><path fill="url(#j)" d="M77.058,317.62c-3.56,19.16,2.06,39.71,16.85,54.5c11.56,11.56,26.93,17.93,43.28,17.93
			c3.82,0,7.59-0.35,11.27-1.03l-9.03-9.03L77.058,317.62z"></path><linearGradient id="k" x1="256" x2="256" y1="89.791" y2="422.209" gradientUnits="userSpaceOnUse"><stop offset=".27" stop-color="#4a82c3"></stop><stop offset=".34" stop-color="#557cbe"></stop><stop offset=".652" stop-color="#7462ab"></stop><stop offset=".805" stop-color="#7d56a3"></stop></linearGradient><path fill="url(#k)" d="M137.188,219.97c3.82,0,7.59-0.35,11.27-1.03l-9.03-9.02l-53.37-53.38l-9-9
			c-3.56,19.16,2.06,39.71,16.85,54.5C105.468,213.6,120.838,219.97,137.188,219.97z"></path><linearGradient id="l" x1="256" x2="256" y1="89.791" y2="422.209" gradientUnits="userSpaceOnUse"><stop offset=".27" stop-color="#4a82c3"></stop><stop offset=".34" stop-color="#557cbe"></stop><stop offset=".652" stop-color="#7462ab"></stop><stop offset=".805" stop-color="#7d56a3"></stop></linearGradient><path fill="url(#l)" d="M176.758,191.27l7.1,7.09c4.45-5.22,7.93-11.07,10.36-17.33l-7.88-7.87l-63.54-63.55l-7.88-7.88
			c-6.26,2.43-12.11,5.92-17.33,10.37l7.1,7.09L176.758,191.27z"></path><linearGradient id="m" x1="256" x2="256" y1="89.791" y2="422.209" gradientUnits="userSpaceOnUse"><stop offset=".27" stop-color="#4a82c3"></stop><stop offset=".34" stop-color="#557cbe"></stop><stop offset=".652" stop-color="#7462ab"></stop><stop offset=".805" stop-color="#7d56a3"></stop></linearGradient><path fill="url(#m)" d="M258.815,107.677V94.791c0-2.762-2.239-5-5-5s-5,2.238-5,5v12.886
			c-16.437,2.427-29.093,16.623-29.093,33.723c0,9.398,3.822,17.921,9.994,24.094h-4.994c-2.761,0-5,2.238-5,5v58.188
			c0,2.762,2.239,5,5,5h4.994c-6.172,6.173-9.994,14.695-9.994,24.093c0,9.398,3.822,17.921,9.994,24.094h-4.994
			c-2.761,0-5,2.238-5,5v58.188c0,2.762,2.239,5,5,5h24.093v18.529c0,2.762,2.239,5,5,5c10.649,0,19.313,8.663,19.313,19.312
			c0,10.649-8.664,19.313-19.313,19.313c-10.648,0-19.312-8.663-19.312-19.313c0-2.762-2.239-5-5-5s-5,2.238-5,5
			c0,16.163,13.149,29.313,29.312,29.313c16.163,0,29.313-13.149,29.313-29.313c0-14.457-10.524-26.495-24.313-28.876v-13.965
			h24.094c2.761,0,5-2.238,5-5v-58.188c0-2.762-2.239-5-5-5h-4.994c6.172-6.173,9.994-14.695,9.994-24.094
			c0-9.398-3.822-17.92-9.994-24.093h4.994c2.761,0,5-2.238,5-5v-58.188c0-2.762-2.239-5-5-5h-4.994
			c6.172-6.173,9.994-14.695,9.994-24.094C287.909,124.3,275.252,110.104,258.815,107.677z M277.909,340.056h-48.187v-48.188h48.187
			V340.056z M253.815,281.868c-13.285,0-24.093-10.809-24.093-24.094s10.808-24.093,24.093-24.093s24.094,10.808,24.094,24.093
			S267.1,281.868,253.815,281.868z M277.909,223.682h-48.187v-48.188h48.187V223.682z M253.815,165.494
			c-13.285,0-24.093-10.809-24.093-24.094s10.808-24.093,24.093-24.093s24.094,10.808,24.094,24.093S267.1,165.494,253.815,165.494z
			"></path><linearGradient id="n" x1="256" x2="256" y1="89.791" y2="422.209" gradientUnits="userSpaceOnUse"><stop offset=".27" stop-color="#4a82c3"></stop><stop offset=".34" stop-color="#557cbe"></stop><stop offset=".652" stop-color="#7462ab"></stop><stop offset=".805" stop-color="#7d56a3"></stop></linearGradient><path fill="url(#n)" d="M392.698,139.21c-1.14-1.36-2.33-2.68-3.35-3.82l-0.1-0.1c-0.03-0.04-0.06-0.07-0.09-0.1
			c-0.05-0.04-0.09-0.09-0.13-0.13c-5.8-5.46-13.4-8.48-21.39-8.48c-4.81,0-9.38,1.1-13.45,3.05l-8.4-31.32
			c-0.46-1.73-1.81-3.08-3.53-3.54c-1.73-0.46-3.57,0.03-4.83,1.29l-28.5,28.5c-1.26,1.26-1.75,3.1-1.29,4.83
			c0.46,1.72,1.81,3.07,3.53,3.53l30.16,8.08c-3.13,4.87-4.95,10.64-4.95,16.84c0,6.73,2.12,13.15,6.12,18.56
			c0.1,0.14,0.21,0.27,0.33,0.4c1.02,1.12,1.99,2.21,2.88,3.27c18.05,21.17,27.99,48.18,27.99,76.04c0,27.92-9.97,54.96-28.06,76.14
			c-0.95,1.11-1.94,2.22-2.94,3.32c-0.13,0.13-0.24,0.27-0.35,0.41c-3.99,5.42-6.1,11.85-6.1,18.59c0,4.77,1.07,9.29,2.99,13.34
			h-32.19c-1.78,0-3.43,0.96-4.33,2.5c-0.89,1.55-0.89,3.46,0,5l20.15,34.9c0.9,1.55,2.55,2.5,4.33,2.5c1.79,0,3.44-0.95,4.33-2.5
			l17.59-30.45c5.17,3.78,11.55,6.03,18.45,6.03c7.4,0,14.59-2.64,20.23-7.42c0.16-0.13,0.3-0.27,0.44-0.42
			c1.79-1.94,3.53-3.9,5.16-5.83c27.46-32.37,42.58-73.6,42.58-116.11C435.978,213.21,420.598,171.68,392.698,139.21z
			 M322.128,125.5l16.24-16.24l5.95,22.19L322.128,125.5z M327.198,397.81l-11.48-19.9h22.97L327.198,397.81z"></path><linearGradient id="o" x1="256" x2="256" y1="89.791" y2="422.209" gradientUnits="userSpaceOnUse"><stop offset=".27" stop-color="#4a82c3"></stop><stop offset=".34" stop-color="#557cbe"></stop><stop offset=".652" stop-color="#7462ab"></stop><stop offset=".805" stop-color="#7d56a3"></stop></linearGradient><path fill="url(#o)" d="M137.188,97.56c-3.82,0-7.59,0.35-11.27,1.03l9.02,9.02l53.4,53.4l9.02,9.02
			c0.68-3.68,1.03-7.44,1.03-11.26c0-16.35-6.36-31.72-17.92-43.28S153.538,97.56,137.188,97.56z"></path><linearGradient id="p" x1="256" x2="256" y1="89.791" y2="422.209" gradientUnits="userSpaceOnUse"><stop offset=".27" stop-color="#4a82c3"></stop><stop offset=".34" stop-color="#557cbe"></stop><stop offset=".652" stop-color="#7462ab"></stop><stop offset=".805" stop-color="#7d56a3"></stop></linearGradient><path fill="url(#p)" d="M151.578,207.92l7.88,7.88c6.26-2.43,12.11-5.92,17.32-10.37l-86.26-86.26
			c-4.49,5.29-7.94,11.16-10.34,17.35l7.87,7.87L151.578,207.92z"></path><linearGradient id="q" x1="256" x2="256" y1="89.791" y2="422.209" gradientUnits="userSpaceOnUse"><stop offset=".27" stop-color="#4a82c3"></stop><stop offset=".34" stop-color="#557cbe"></stop><stop offset=".652" stop-color="#7462ab"></stop><stop offset=".805" stop-color="#7d56a3"></stop></linearGradient><path fill="url(#q)" d="M137.188,267.64c-3.82,0-7.59,0.35-11.27,1.03l9.02,9.02l53.4,53.4l9.02,9.02
			c0.68-3.68,1.03-7.45,1.03-11.27c0-16.35-6.36-31.72-17.92-43.28C168.908,274,153.538,267.64,137.188,267.64z"></path><linearGradient id="r" x1="256" x2="256" y1="89.791" y2="422.209" gradientUnits="userSpaceOnUse"><stop offset=".27" stop-color="#4a82c3"></stop><stop offset=".34" stop-color="#557cbe"></stop><stop offset=".652" stop-color="#7462ab"></stop><stop offset=".805" stop-color="#7d56a3"></stop></linearGradient><path fill="url(#r)" d="M122.798,279.69l-7.89-7.89c-6.26,2.44-12.11,5.93-17.32,10.37l86.27,86.27
			c4.45-5.22,7.93-11.07,10.36-17.33l-7.88-7.88L122.798,279.69z"></path><linearGradient id="s" x1="256" x2="256" y1="89.791" y2="422.209" gradientUnits="userSpaceOnUse"><stop offset=".27" stop-color="#4a82c3"></stop><stop offset=".34" stop-color="#557cbe"></stop><stop offset=".652" stop-color="#7462ab"></stop><stop offset=".805" stop-color="#7d56a3"></stop></linearGradient><path fill="url(#s)" d="M97.618,296.34l-7.1-7.1c-4.49,5.29-7.94,11.17-10.34,17.36l79.28,79.28
			c6.26-2.43,12.11-5.92,17.32-10.37l-7.1-7.1L97.618,296.34z"></path><linearGradient id="t" x1="256" x2="256" y1="89.791" y2="422.209" gradientUnits="userSpaceOnUse"><stop offset=".27" stop-color="#4a82c3"></stop><stop offset=".34" stop-color="#557cbe"></stop><stop offset=".652" stop-color="#7462ab"></stop><stop offset=".805" stop-color="#7d56a3"></stop></linearGradient><path fill="url(#t)" d="M77.058,317.62c-3.56,19.16,2.06,39.71,16.85,54.5c11.56,11.56,26.93,17.93,43.28,17.93
			c3.82,0,7.59-0.35,11.27-1.03l-9.03-9.03L77.058,317.62z"></path></svg>